<mxfile host="65bd71144e">
    <diagram id="zOqiCu7cSZdN4TXjWoG8" name="Page-1">
        <mxGraphModel dx="3502" dy="2131" grid="0" gridSize="10" guides="1" tooltips="1" connect="1" arrows="1" fold="1" page="0" pageScale="1" pageWidth="850" pageHeight="1100" math="0" shadow="0">
            <root>
                <mxCell id="0"/>
                <mxCell id="1" parent="0"/>
                <mxCell id="122" style="edgeStyle=orthogonalEdgeStyle;shape=connector;rounded=1;html=1;labelBackgroundColor=default;strokeColor=default;fontFamily=Helvetica;fontSize=11;fontColor=default;endArrow=classic;" parent="1" source="11" target="2" edge="1">
                    <mxGeometry relative="1" as="geometry">
                        <Array as="points">
                            <mxPoint x="-533" y="900"/>
                            <mxPoint x="-533" y="-13"/>
                            <mxPoint x="405" y="-13"/>
                        </Array>
                    </mxGeometry>
                </mxCell>
                <mxCell id="123" value="&lt;font style=&quot;font-size: 28px;&quot;&gt;Cancel&lt;/font&gt;" style="edgeLabel;html=1;align=center;verticalAlign=middle;resizable=0;points=[];fontSize=11;fontFamily=Helvetica;fontColor=default;" parent="122" vertex="1" connectable="0">
                    <mxGeometry x="-0.9317" y="-1" relative="1" as="geometry">
                        <mxPoint x="-24" y="1" as="offset"/>
                    </mxGeometry>
                </mxCell>
                <mxCell id="2" value="Trackio" style="strokeWidth=1;shadow=0;dashed=0;align=center;html=1;shape=mxgraph.mockup.containers.window;align=left;verticalAlign=top;spacingLeft=8;strokeColor2=#008cff;strokeColor3=#c4c4c4;fontColor=#666666;mainText=;fontSize=17;labelBackgroundColor=none;" parent="1" vertex="1">
                    <mxGeometry x="129" y="130" width="550" height="380" as="geometry"/>
                </mxCell>
                <mxCell id="20" style="edgeStyle=orthogonalEdgeStyle;html=1;exitX=0.001;exitY=0.485;exitDx=0;exitDy=0;exitPerimeter=0;" parent="1" source="2" target="11" edge="1">
                    <mxGeometry relative="1" as="geometry"/>
                </mxCell>
                <mxCell id="23" value="File/Open" style="edgeLabel;html=1;align=center;verticalAlign=middle;resizable=0;points=[];fontSize=28;" parent="20" vertex="1" connectable="0">
                    <mxGeometry x="-0.7693" y="4" relative="1" as="geometry">
                        <mxPoint x="-22" y="-5" as="offset"/>
                    </mxGeometry>
                </mxCell>
                <mxCell id="25" style="edgeStyle=orthogonalEdgeStyle;html=1;entryX=0;entryY=0.579;entryDx=0;entryDy=0;entryPerimeter=0;" parent="1" source="11" target="12" edge="1">
                    <mxGeometry relative="1" as="geometry"/>
                </mxCell>
                <mxCell id="117" value="Open" style="edgeLabel;html=1;align=center;verticalAlign=middle;resizable=0;points=[];fontSize=28;" parent="25" vertex="1" connectable="0">
                    <mxGeometry x="-0.7172" y="-3" relative="1" as="geometry">
                        <mxPoint x="-46" y="-9" as="offset"/>
                    </mxGeometry>
                </mxCell>
                <mxCell id="11" value="" style="strokeWidth=1;shadow=0;dashed=0;align=center;html=1;shape=mxgraph.mockup.containers.window;align=left;verticalAlign=top;spacingLeft=8;strokeColor2=#008cff;strokeColor3=#c4c4c4;fontColor=#666666;mainText=;fontSize=17;labelBackgroundColor=none;" parent="1" vertex="1">
                    <mxGeometry x="-340" y="710" width="550" height="380" as="geometry"/>
                </mxCell>
                <mxCell id="22" style="edgeStyle=orthogonalEdgeStyle;html=1;exitX=1;exitY=0.474;exitDx=0;exitDy=0;exitPerimeter=0;" parent="1" source="2" target="12" edge="1">
                    <mxGeometry relative="1" as="geometry"/>
                </mxCell>
                <mxCell id="24" value="File/New" style="edgeLabel;html=1;align=center;verticalAlign=middle;resizable=0;points=[];fontSize=28;" parent="22" vertex="1" connectable="0">
                    <mxGeometry x="-0.6226" y="4" relative="1" as="geometry">
                        <mxPoint x="-81" y="-56" as="offset"/>
                    </mxGeometry>
                </mxCell>
                <mxCell id="87" value="&lt;font style=&quot;font-size: 28px;&quot;&gt;Tests&lt;/font&gt;" style="edgeStyle=none;html=1;" parent="1" source="12" target="88" edge="1">
                    <mxGeometry relative="1" as="geometry">
                        <mxPoint x="855" y="1920" as="targetPoint"/>
                    </mxGeometry>
                </mxCell>
                <mxCell id="12" value="Test Tracker" style="strokeWidth=1;shadow=0;dashed=0;align=center;html=1;shape=mxgraph.mockup.containers.window;align=left;verticalAlign=top;spacingLeft=8;strokeColor2=#008cff;strokeColor3=#c4c4c4;fontColor=#666666;mainText=;fontSize=17;labelBackgroundColor=none;" parent="1" vertex="1">
                    <mxGeometry x="580" y="1330" width="550" height="380" as="geometry"/>
                </mxCell>
                <mxCell id="26" value="Select Existing Project" style="strokeWidth=1;shadow=0;dashed=0;align=center;html=1;shape=mxgraph.mockup.containers.window;align=left;verticalAlign=top;spacingLeft=8;strokeColor2=#008cff;strokeColor3=#c4c4c4;fontColor=#666666;mainText=;fontSize=17;labelBackgroundColor=none;strokeColor=default;fillColor=default;" parent="1" vertex="1">
                    <mxGeometry x="-275" y="765" width="425" height="270" as="geometry"/>
                </mxCell>
                <mxCell id="34" value="" style="strokeWidth=1;shadow=0;dashed=0;align=center;html=1;shape=mxgraph.mockup.forms.rrect;rSize=0;strokeColor=#999999;fillColor=#ffffff;" parent="1" vertex="1">
                    <mxGeometry x="-270" y="800" width="420" height="200" as="geometry"/>
                </mxCell>
                <mxCell id="35" value="C:/Projects" style="strokeWidth=1;shadow=0;dashed=0;align=left;html=1;shape=mxgraph.mockup.forms.rrect;rSize=0;strokeColor=#999999;fontColor=#008cff;fontSize=17;fillColor=#ffffff;resizeWidth=1;" parent="34" vertex="1">
                    <mxGeometry width="420" height="30" relative="1" as="geometry"/>
                </mxCell>
                <mxCell id="36" value="Project 1" style="strokeWidth=1;shadow=0;dashed=0;align=center;html=1;shape=mxgraph.mockup.forms.anchor;fontSize=17;fontColor=#666666;align=left;spacingLeft=5;resizeWidth=1;strokeColor=default;fillColor=default;" parent="34" vertex="1">
                    <mxGeometry width="420" height="20" relative="1" as="geometry">
                        <mxPoint y="30" as="offset"/>
                    </mxGeometry>
                </mxCell>
                <mxCell id="37" value="Project 2" style="strokeWidth=1;shadow=0;dashed=0;align=center;html=1;shape=mxgraph.mockup.forms.anchor;fontSize=17;fontColor=#666666;align=left;spacingLeft=5;resizeWidth=1;strokeColor=default;fillColor=default;" parent="34" vertex="1">
                    <mxGeometry width="420" height="20" relative="1" as="geometry">
                        <mxPoint y="50" as="offset"/>
                    </mxGeometry>
                </mxCell>
                <mxCell id="38" value="Project 3" style="strokeWidth=1;shadow=0;dashed=0;align=center;html=1;shape=mxgraph.mockup.forms.rrect;rSize=0;fontSize=17;fontColor=#666666;align=left;spacingLeft=5;fillColor=#ddeeff;strokeColor=none;resizeWidth=1;" parent="34" vertex="1">
                    <mxGeometry width="420" height="20" relative="1" as="geometry">
                        <mxPoint y="70" as="offset"/>
                    </mxGeometry>
                </mxCell>
                <mxCell id="39" value="Project 4" style="strokeWidth=1;shadow=0;dashed=0;align=center;html=1;shape=mxgraph.mockup.forms.anchor;fontSize=17;fontColor=#666666;align=left;spacingLeft=5;resizeWidth=1;strokeColor=default;fillColor=default;" parent="34" vertex="1">
                    <mxGeometry width="420" height="20" relative="1" as="geometry">
                        <mxPoint y="90" as="offset"/>
                    </mxGeometry>
                </mxCell>
                <mxCell id="42" value="" style="group;strokeColor=default;" parent="34" vertex="1" connectable="0">
                    <mxGeometry x="260" y="202" width="158" height="30" as="geometry"/>
                </mxCell>
                <mxCell id="43" value="Open" style="strokeColor=inherit;fillColor=inherit;gradientColor=inherit;strokeWidth=1;shadow=0;dashed=0;align=center;html=1;shape=mxgraph.mockup.forms.rrect;rSize=0;fontSize=17;fontColor=#666666;" parent="42" vertex="1">
                    <mxGeometry width="79" height="30" as="geometry"/>
                </mxCell>
                <mxCell id="44" value="Cancel" style="strokeColor=inherit;fillColor=inherit;gradientColor=inherit;strokeWidth=1;shadow=0;dashed=0;align=center;html=1;shape=mxgraph.mockup.forms.rrect;rSize=0;fontSize=17;fontColor=#666666;" parent="42" vertex="1">
                    <mxGeometry x="79" width="79" height="30" as="geometry"/>
                </mxCell>
                <mxCell id="52" value="" style="strokeWidth=1;shadow=0;dashed=0;align=center;html=1;shape=mxgraph.mockup.containers.marginRect2;rectMarginTop=32;strokeColor=#666666;gradientColor=none;noLabel=0;portConstraintRotation=0;metaEdit=0;comic=1;" parent="1" vertex="1">
                    <mxGeometry x="580" y="1367" width="437" height="293" as="geometry"/>
                </mxCell>
                <mxCell id="54" value="Project's Properties" style="strokeWidth=1;shadow=0;dashed=0;align=center;html=1;shape=mxgraph.mockup.containers.rrect;rSize=0;fontSize=17;fontColor=#ffffff;strokeColor=#008cff;fillColor=#008cff;" parent="52" vertex="1">
                    <mxGeometry width="160" height="25" relative="1" as="geometry">
                        <mxPoint x="5" as="offset"/>
                    </mxGeometry>
                </mxCell>
                <mxCell id="55" value="Tests" style="strokeColor=inherit;fillColor=inherit;gradientColor=inherit;strokeWidth=1;shadow=0;dashed=0;align=center;html=1;shape=mxgraph.mockup.containers.rrect;rSize=0;fontSize=17;fontColor=#666666;gradientColor=none;" parent="52" vertex="1">
                    <mxGeometry width="130" height="25" relative="1" as="geometry">
                        <mxPoint x="170" as="offset"/>
                    </mxGeometry>
                </mxCell>
                <mxCell id="56" value="" style="strokeWidth=1;shadow=0;dashed=0;align=center;html=1;shape=mxgraph.mockup.containers.topButton;rSize=5;strokeColor=#008cff;fillColor=#008cff;gradientColor=none;resizeWidth=1;movable=0;deletable=1;" parent="52" vertex="1">
                    <mxGeometry width="437" height="7" relative="1" as="geometry">
                        <mxPoint y="25" as="offset"/>
                    </mxGeometry>
                </mxCell>
                <mxCell id="71" value="" style="group" parent="52" vertex="1" connectable="0">
                    <mxGeometry x="17.137254901960784" y="37.26763110307414" width="128.5294117647059" height="44.772368896925855" as="geometry"/>
                </mxCell>
                <mxCell id="69" value="1" style="strokeWidth=1;shadow=0;dashed=0;align=center;html=1;shape=mxgraph.mockup.text.textBox;fontColor=#666666;align=left;fontSize=17;spacingLeft=4;spacingTop=-3;strokeColor=#666666;mainText=;comic=1;sketch=0;fillColor=default;" parent="71" vertex="1">
                    <mxGeometry x="0.0016719273075068487" y="17.302368896925863" width="59.97558536585367" height="27.47" as="geometry"/>
                </mxCell>
                <mxCell id="70" value="ID" style="text;spacingTop=-5;whiteSpace=wrap;html=1;align=left;fontSize=12;fontFamily=Helvetica;fillColor=none;strokeColor=none;comic=1;sketch=0;" parent="71" vertex="1">
                    <mxGeometry width="128.52941176470588" height="14.305605786618445" as="geometry"/>
                </mxCell>
                <mxCell id="75" value="" style="group" parent="52" vertex="1" connectable="0">
                    <mxGeometry x="17.13725490196083" y="82.03763110307409" width="302.6188426590148" height="44.77236889692591" as="geometry"/>
                </mxCell>
                <mxCell id="73" value="Tests for user's input fields in WebApp" style="strokeWidth=1;shadow=0;dashed=0;align=center;html=1;shape=mxgraph.mockup.text.textBox;fontColor=#666666;align=left;fontSize=17;spacingLeft=4;spacingTop=-3;strokeColor=#666666;mainText=;comic=1;sketch=0;fillColor=default;" parent="75" vertex="1">
                    <mxGeometry x="0.0016719273074614087" y="17.302368896925913" width="302.61717073170735" height="27.47" as="geometry"/>
                </mxCell>
                <mxCell id="74" value="Name" style="text;spacingTop=-5;whiteSpace=wrap;html=1;align=left;fontSize=12;fontFamily=Helvetica;fillColor=none;strokeColor=none;comic=1;sketch=0;" parent="75" vertex="1">
                    <mxGeometry width="128.52941176470588" height="14.305605786618445" as="geometry"/>
                </mxCell>
                <mxCell id="76" value="" style="group" parent="52" vertex="1" connectable="0">
                    <mxGeometry x="17.13725490196083" y="126.80763110307407" width="302.6188426590148" height="44.77236889692591" as="geometry"/>
                </mxCell>
                <mxCell id="77" value="2024-01-02" style="strokeWidth=1;shadow=0;dashed=0;align=center;html=1;shape=mxgraph.mockup.text.textBox;fontColor=#666666;align=left;fontSize=17;spacingLeft=4;spacingTop=-3;strokeColor=#666666;mainText=;comic=1;sketch=0;fillColor=default;" parent="76" vertex="1">
                    <mxGeometry x="0.0016719273074614087" y="17.302368896925913" width="302.61717073170735" height="27.47" as="geometry"/>
                </mxCell>
                <mxCell id="78" value="Creation Date" style="text;spacingTop=-5;whiteSpace=wrap;html=1;align=left;fontSize=12;fontFamily=Helvetica;fillColor=none;strokeColor=none;comic=1;sketch=0;" parent="76" vertex="1">
                    <mxGeometry width="128.52941176470588" height="14.305605786618445" as="geometry"/>
                </mxCell>
                <mxCell id="79" value="" style="group" parent="52" vertex="1" connectable="0">
                    <mxGeometry x="17.13725490196083" y="172.99763110307413" width="302.6188426590148" height="44.77236889692591" as="geometry"/>
                </mxCell>
                <mxCell id="80" value="2024-01-02" style="strokeWidth=1;shadow=0;dashed=0;align=center;html=1;shape=mxgraph.mockup.text.textBox;fontColor=#666666;align=left;fontSize=17;spacingLeft=4;spacingTop=-3;strokeColor=#666666;mainText=;comic=1;sketch=0;fillColor=default;" parent="79" vertex="1">
                    <mxGeometry x="0.0016719273074614087" y="17.302368896925913" width="302.61717073170735" height="27.47" as="geometry"/>
                </mxCell>
                <mxCell id="81" value="Last Update" style="text;spacingTop=-5;whiteSpace=wrap;html=1;align=left;fontSize=12;fontFamily=Helvetica;fillColor=none;strokeColor=none;comic=1;sketch=0;" parent="79" vertex="1">
                    <mxGeometry width="128.52941176470588" height="14.305605786618445" as="geometry"/>
                </mxCell>
                <mxCell id="82" value="" style="group" parent="52" vertex="1" connectable="0">
                    <mxGeometry x="17.13725490196083" y="217.7676311030741" width="302.6188426590148" height="45.23236889692589" as="geometry"/>
                </mxCell>
                <mxCell id="84" value="Current Status" style="text;spacingTop=-5;whiteSpace=wrap;html=1;align=left;fontSize=12;fontFamily=Helvetica;fillColor=none;strokeColor=none;comic=1;sketch=0;" parent="82" vertex="1">
                    <mxGeometry width="128.52941176470588" height="14.305605786618445" as="geometry"/>
                </mxCell>
                <mxCell id="85" value="During Validation" style="strokeWidth=1;shadow=0;dashed=0;align=center;html=1;shape=mxgraph.mockup.forms.comboBox;strokeColor=#999999;fillColor=#ddeeff;align=left;fillColor2=#aaddff;mainText=;fontColor=#666666;fontSize=17;spacingLeft=3;comic=1;sketch=0;" parent="82" vertex="1">
                    <mxGeometry x="-0.08526829268292684" y="19.23" width="181.28039024390247" height="30" as="geometry"/>
                </mxCell>
                <mxCell id="139" value="Tracker" style="edgeStyle=orthogonalEdgeStyle;shape=connector;rounded=1;html=1;entryX=0.499;entryY=-0.002;entryDx=0;entryDy=0;entryPerimeter=0;labelBackgroundColor=default;strokeColor=default;fontFamily=Helvetica;fontSize=28;fontColor=default;endArrow=classic;" parent="1" source="88" target="124" edge="1">
                    <mxGeometry relative="1" as="geometry"/>
                </mxCell>
                <mxCell id="88" value="Test Tracker" style="strokeWidth=1;shadow=0;dashed=0;align=center;html=1;shape=mxgraph.mockup.containers.window;align=left;verticalAlign=top;spacingLeft=8;strokeColor2=#008cff;strokeColor3=#c4c4c4;fontColor=#666666;mainText=;fontSize=17;labelBackgroundColor=none;" parent="1" vertex="1">
                    <mxGeometry x="580" y="1936" width="550" height="380" as="geometry"/>
                </mxCell>
                <mxCell id="89" value="" style="strokeWidth=1;shadow=0;dashed=0;align=center;html=1;shape=mxgraph.mockup.containers.marginRect2;rectMarginTop=32;strokeColor=#666666;gradientColor=none;noLabel=0;portConstraintRotation=0;metaEdit=0;comic=1;" parent="1" vertex="1">
                    <mxGeometry x="583" y="1972" width="523" height="335" as="geometry"/>
                </mxCell>
                <mxCell id="90" value="Tests" style="strokeWidth=1;shadow=0;dashed=0;align=center;html=1;shape=mxgraph.mockup.containers.rrect;rSize=0;fontSize=17;fontColor=#ffffff;strokeColor=#008cff;fillColor=#008cff;" parent="89" vertex="1">
                    <mxGeometry width="142" height="25" relative="1" as="geometry">
                        <mxPoint x="187" as="offset"/>
                    </mxGeometry>
                </mxCell>
                <mxCell id="91" value="Project's Properties" style="strokeColor=inherit;fillColor=inherit;gradientColor=inherit;strokeWidth=1;shadow=0;dashed=0;align=center;html=1;shape=mxgraph.mockup.containers.rrect;rSize=0;fontSize=17;fontColor=#666666;gradientColor=none;" parent="89" vertex="1">
                    <mxGeometry width="171" height="25" relative="1" as="geometry">
                        <mxPoint x="12" as="offset"/>
                    </mxGeometry>
                </mxCell>
                <mxCell id="92" value="" style="strokeWidth=1;shadow=0;dashed=0;align=center;html=1;shape=mxgraph.mockup.containers.topButton;rSize=5;strokeColor=#008cff;fillColor=#008cff;gradientColor=none;resizeWidth=1;movable=0;deletable=1;" parent="89" vertex="1">
                    <mxGeometry width="523" height="7" relative="1" as="geometry">
                        <mxPoint y="25" as="offset"/>
                    </mxGeometry>
                </mxCell>
                <mxCell id="108" value="" style="strokeWidth=1;shadow=0;dashed=0;align=center;html=1;shape=mxgraph.mockup.forms.rrect;rSize=0;strokeColor=#999999;" parent="89" vertex="1">
                    <mxGeometry x="12.5" y="43" width="498" height="30" as="geometry"/>
                </mxCell>
                <mxCell id="109" value="ID" style="strokeColor=inherit;fillColor=inherit;gradientColor=inherit;strokeWidth=1;shadow=0;dashed=0;align=center;html=1;shape=mxgraph.mockup.forms.rrect;rSize=0;fontSize=17;fontColor=#666666;" parent="108" vertex="1">
                    <mxGeometry width="41" height="30" as="geometry"/>
                </mxCell>
                <mxCell id="110" value="Name" style="strokeColor=inherit;fillColor=inherit;gradientColor=inherit;strokeWidth=1;shadow=0;dashed=0;align=center;html=1;shape=mxgraph.mockup.forms.rrect;rSize=0;fontSize=17;fontColor=#666666;" parent="108" vertex="1">
                    <mxGeometry x="39" width="127" height="30" as="geometry"/>
                </mxCell>
                <mxCell id="111" value="Type" style="strokeColor=inherit;fillColor=inherit;gradientColor=inherit;strokeWidth=1;shadow=0;dashed=0;align=center;html=1;shape=mxgraph.mockup.forms.rrect;rSize=0;fontSize=17;fontColor=#666666;" parent="108" vertex="1">
                    <mxGeometry x="166" width="83" height="30" as="geometry"/>
                </mxCell>
                <mxCell id="112" value="Description" style="strokeColor=inherit;fillColor=inherit;gradientColor=inherit;strokeWidth=1;shadow=0;dashed=0;align=center;html=1;shape=mxgraph.mockup.forms.rrect;rSize=0;fontSize=17;fontColor=#666666;" parent="108" vertex="1">
                    <mxGeometry x="249" width="95" height="30" as="geometry"/>
                </mxCell>
                <mxCell id="113" value="Location" style="strokeColor=inherit;fillColor=inherit;gradientColor=inherit;strokeWidth=1;shadow=0;dashed=0;align=center;html=1;shape=mxgraph.mockup.forms.rrect;rSize=0;fontSize=17;fontColor=#666666;" parent="108" vertex="1">
                    <mxGeometry x="344" width="71" height="30" as="geometry"/>
                </mxCell>
                <mxCell id="114" value="Impact" style="strokeColor=inherit;fillColor=inherit;gradientColor=inherit;strokeWidth=1;shadow=0;dashed=0;align=center;html=1;shape=mxgraph.mockup.forms.rrect;rSize=0;fontSize=17;fontColor=#666666;" parent="108" vertex="1">
                    <mxGeometry x="415" width="83" height="30" as="geometry"/>
                </mxCell>
                <mxCell id="115" value="Tracker" style="strokeColor=inherit;fillColor=inherit;gradientColor=inherit;strokeWidth=1;shadow=0;dashed=0;align=center;html=1;shape=mxgraph.mockup.containers.rrect;rSize=0;fontSize=17;fontColor=#666666;gradientColor=none;" parent="1" vertex="1">
                    <mxGeometry x="883" y="1367" width="130" height="25" as="geometry"/>
                </mxCell>
                <mxCell id="116" value="Tracker" style="strokeColor=inherit;fillColor=inherit;gradientColor=inherit;strokeWidth=1;shadow=0;dashed=0;align=center;html=1;shape=mxgraph.mockup.containers.rrect;rSize=0;fontSize=17;fontColor=#666666;gradientColor=none;" parent="1" vertex="1">
                    <mxGeometry x="916" y="1972" width="130" height="25" as="geometry"/>
                </mxCell>
                <mxCell id="124" value="Test Tracker" style="strokeWidth=1;shadow=0;dashed=0;align=center;html=1;shape=mxgraph.mockup.containers.window;align=left;verticalAlign=top;spacingLeft=8;strokeColor2=#008cff;strokeColor3=#c4c4c4;fontColor=#666666;mainText=;fontSize=17;labelBackgroundColor=none;" parent="1" vertex="1">
                    <mxGeometry x="580.5" y="2526.5" width="550" height="380" as="geometry"/>
                </mxCell>
                <mxCell id="125" value="" style="strokeWidth=1;shadow=0;dashed=0;align=center;html=1;shape=mxgraph.mockup.containers.marginRect2;rectMarginTop=32;strokeColor=#666666;gradientColor=none;noLabel=0;portConstraintRotation=0;metaEdit=0;comic=1;" parent="1" vertex="1">
                    <mxGeometry x="587" y="2562" width="523" height="335" as="geometry"/>
                </mxCell>
                <mxCell id="126" value="Tests" style="strokeWidth=1;shadow=0;dashed=0;align=center;html=1;shape=mxgraph.mockup.containers.rrect;rSize=0;fontSize=17;fontColor=#ffffff;strokeColor=#008cff;fillColor=#008cff;" parent="125" vertex="1">
                    <mxGeometry width="142" height="25" relative="1" as="geometry">
                        <mxPoint x="333" as="offset"/>
                    </mxGeometry>
                </mxCell>
                <mxCell id="127" value="Project's Properties" style="strokeColor=inherit;fillColor=inherit;gradientColor=inherit;strokeWidth=1;shadow=0;dashed=0;align=center;html=1;shape=mxgraph.mockup.containers.rrect;rSize=0;fontSize=17;fontColor=#666666;gradientColor=none;" parent="125" vertex="1">
                    <mxGeometry width="171" height="25" relative="1" as="geometry">
                        <mxPoint x="12" as="offset"/>
                    </mxGeometry>
                </mxCell>
                <mxCell id="128" value="" style="strokeWidth=1;shadow=0;dashed=0;align=center;html=1;shape=mxgraph.mockup.containers.topButton;rSize=5;strokeColor=#008cff;fillColor=#008cff;gradientColor=none;resizeWidth=1;movable=0;deletable=1;" parent="125" vertex="1">
                    <mxGeometry width="523" height="7" relative="1" as="geometry">
                        <mxPoint y="25" as="offset"/>
                    </mxGeometry>
                </mxCell>
                <mxCell id="129" value="" style="strokeWidth=1;shadow=0;dashed=0;align=center;html=1;shape=mxgraph.mockup.forms.rrect;rSize=0;strokeColor=#999999;" parent="125" vertex="1">
                    <mxGeometry x="12.5" y="43" width="498" height="30" as="geometry"/>
                </mxCell>
                <mxCell id="130" value="ID" style="strokeColor=inherit;fillColor=inherit;gradientColor=inherit;strokeWidth=1;shadow=0;dashed=0;align=center;html=1;shape=mxgraph.mockup.forms.rrect;rSize=0;fontSize=17;fontColor=#666666;" parent="129" vertex="1">
                    <mxGeometry width="59" height="30" as="geometry"/>
                </mxCell>
                <mxCell id="131" value="Date" style="strokeColor=inherit;fillColor=inherit;gradientColor=inherit;strokeWidth=1;shadow=0;dashed=0;align=center;html=1;shape=mxgraph.mockup.forms.rrect;rSize=0;fontSize=17;fontColor=#666666;" parent="129" vertex="1">
                    <mxGeometry x="59" width="107" height="30" as="geometry"/>
                </mxCell>
                <mxCell id="132" value="Status" style="strokeColor=inherit;fillColor=inherit;gradientColor=inherit;strokeWidth=1;shadow=0;dashed=0;align=center;html=1;shape=mxgraph.mockup.forms.rrect;rSize=0;fontSize=17;fontColor=#666666;" parent="129" vertex="1">
                    <mxGeometry x="166" width="83" height="30" as="geometry"/>
                </mxCell>
                <mxCell id="133" value="Description" style="strokeColor=inherit;fillColor=inherit;gradientColor=inherit;strokeWidth=1;shadow=0;dashed=0;align=center;html=1;shape=mxgraph.mockup.forms.rrect;rSize=0;fontSize=17;fontColor=#666666;" parent="129" vertex="1">
                    <mxGeometry x="249" width="95" height="30" as="geometry"/>
                </mxCell>
                <mxCell id="134" value="Attachments" style="strokeColor=inherit;fillColor=inherit;gradientColor=inherit;strokeWidth=1;shadow=0;dashed=0;align=center;html=1;shape=mxgraph.mockup.forms.rrect;rSize=0;fontSize=17;fontColor=#666666;" parent="129" vertex="1">
                    <mxGeometry x="344" width="153" height="30" as="geometry"/>
                </mxCell>
                <mxCell id="136" value="Tracker" style="strokeColor=inherit;fillColor=inherit;gradientColor=inherit;strokeWidth=1;shadow=0;dashed=0;align=center;html=1;shape=mxgraph.mockup.containers.rrect;rSize=0;fontSize=17;fontColor=#666666;gradientColor=none;" parent="1" vertex="1">
                    <mxGeometry x="781" y="2561" width="130" height="25" as="geometry"/>
                </mxCell>
                <mxCell id="140" value="" style="strokeWidth=1;shadow=0;dashed=0;align=center;html=1;shape=mxgraph.mockup.forms.rrect;rSize=0;strokeColor=#999999;" parent="1" vertex="1">
                    <mxGeometry x="595.5" y="2045" width="498" height="30" as="geometry"/>
                </mxCell>
                <mxCell id="141" value="1" style="strokeColor=inherit;fillColor=inherit;gradientColor=inherit;strokeWidth=1;shadow=0;dashed=0;align=center;html=1;shape=mxgraph.mockup.forms.rrect;rSize=0;fontSize=17;fontColor=#666666;" parent="140" vertex="1">
                    <mxGeometry width="40" height="30" as="geometry"/>
                </mxCell>
                <mxCell id="142" value="Value exceeds limits" style="strokeColor=inherit;fillColor=inherit;gradientColor=inherit;strokeWidth=1;shadow=0;dashed=0;align=center;html=1;shape=mxgraph.mockup.forms.rrect;rSize=0;fontSize=13;fontColor=#666666;" parent="140" vertex="1">
                    <mxGeometry x="39" width="127" height="30" as="geometry"/>
                </mxCell>
                <mxCell id="143" value="Limits" style="strokeColor=inherit;fillColor=inherit;gradientColor=inherit;strokeWidth=1;shadow=0;dashed=0;align=center;html=1;shape=mxgraph.mockup.forms.rrect;rSize=0;fontSize=17;fontColor=#666666;" parent="140" vertex="1">
                    <mxGeometry x="166" width="83" height="30" as="geometry"/>
                </mxCell>
                <mxCell id="144" value="upper and lower" style="strokeColor=inherit;fillColor=inherit;gradientColor=inherit;strokeWidth=1;shadow=0;dashed=0;align=center;html=1;shape=mxgraph.mockup.forms.rrect;rSize=0;fontSize=13;fontColor=#666666;" parent="140" vertex="1">
                    <mxGeometry x="249" width="95" height="30" as="geometry"/>
                </mxCell>
                <mxCell id="145" value="/order" style="strokeColor=inherit;fillColor=inherit;gradientColor=inherit;strokeWidth=1;shadow=0;dashed=0;align=center;html=1;shape=mxgraph.mockup.forms.rrect;rSize=0;fontSize=17;fontColor=#666666;" parent="140" vertex="1">
                    <mxGeometry x="344" width="71" height="30" as="geometry"/>
                </mxCell>
                <mxCell id="146" value="High" style="strokeColor=inherit;fillColor=inherit;gradientColor=inherit;strokeWidth=1;shadow=0;dashed=0;align=center;html=1;shape=mxgraph.mockup.forms.rrect;rSize=0;fontSize=17;fontColor=#666666;" parent="140" vertex="1">
                    <mxGeometry x="415" width="83" height="30" as="geometry"/>
                </mxCell>
                <mxCell id="147" value="" style="strokeWidth=1;shadow=0;dashed=0;align=center;html=1;shape=mxgraph.mockup.forms.rrect;rSize=0;strokeColor=#999999;" parent="1" vertex="1">
                    <mxGeometry x="599.5" y="2635" width="498" height="30" as="geometry"/>
                </mxCell>
                <mxCell id="148" value="1" style="strokeColor=inherit;fillColor=inherit;gradientColor=inherit;strokeWidth=1;shadow=0;dashed=0;align=center;html=1;shape=mxgraph.mockup.forms.rrect;rSize=0;fontSize=17;fontColor=#666666;" parent="147" vertex="1">
                    <mxGeometry width="58" height="30" as="geometry"/>
                </mxCell>
                <mxCell id="149" value="2024-01-02" style="strokeColor=inherit;fillColor=inherit;gradientColor=inherit;strokeWidth=1;shadow=0;dashed=0;align=center;html=1;shape=mxgraph.mockup.forms.rrect;rSize=0;fontSize=17;fontColor=#666666;" parent="147" vertex="1">
                    <mxGeometry x="58" width="108" height="30" as="geometry"/>
                </mxCell>
                <mxCell id="150" value="Undone" style="strokeColor=inherit;fillColor=inherit;gradientColor=inherit;strokeWidth=1;shadow=0;dashed=0;align=center;html=1;shape=mxgraph.mockup.forms.rrect;rSize=0;fontSize=17;fontColor=#666666;" parent="147" vertex="1">
                    <mxGeometry x="166" width="83" height="30" as="geometry"/>
                </mxCell>
                <mxCell id="151" value="In Progress" style="strokeColor=inherit;fillColor=inherit;gradientColor=inherit;strokeWidth=1;shadow=0;dashed=0;align=center;html=1;shape=mxgraph.mockup.forms.rrect;rSize=0;fontSize=17;fontColor=#666666;" parent="147" vertex="1">
                    <mxGeometry x="249" width="95" height="30" as="geometry"/>
                </mxCell>
                <mxCell id="152" value="Attachments" style="strokeColor=inherit;fillColor=inherit;gradientColor=inherit;strokeWidth=1;shadow=0;dashed=0;align=center;html=1;shape=mxgraph.mockup.forms.rrect;rSize=0;fontSize=17;fontColor=#666666;" parent="147" vertex="1">
                    <mxGeometry x="344" width="153" height="30" as="geometry"/>
                </mxCell>
                <mxCell id="162" value="" style="group" parent="1" vertex="1" connectable="0">
                    <mxGeometry x="1368" y="1608" width="643" height="504" as="geometry"/>
                </mxCell>
                <mxCell id="153" value="TestTracker.LOG" style="strokeWidth=1;shadow=0;dashed=0;align=center;html=1;shape=mxgraph.mockup.containers.window;align=left;verticalAlign=top;spacingLeft=8;strokeColor2=#008cff;strokeColor3=#c4c4c4;fontColor=#666666;mainText=;fontSize=17;labelBackgroundColor=none;" parent="162" vertex="1">
                    <mxGeometry width="640.6702898550724" height="500.36649214659684" as="geometry"/>
                </mxCell>
                <mxCell id="156" value="[ID_of_Project]&amp;nbsp;&lt;br&gt;Name:&lt;br&gt;Creation Date:&lt;br&gt;Last Update:&lt;br&gt;Current Status:&lt;br&gt;[ID_ID]&lt;br&gt;Name:&lt;br&gt;Type:&lt;br&gt;Description:&lt;br&gt;Location:&lt;br&gt;Impact:&lt;br&gt;[ID_ID_ID]&lt;br&gt;Date:&lt;br&gt;Status:&lt;br&gt;Descitpion:&lt;br&gt;Attachments:" style="strokeWidth=1;shadow=0;dashed=0;align=right;html=1;shape=mxgraph.mockup.forms.pwField;strokeColor=#999999;mainText=;align=left;fontColor=#666666;fontSize=17;spacingLeft=3;verticalAlign=top;" parent="162" vertex="1">
                    <mxGeometry y="29.5" width="643" height="474.5" as="geometry"/>
                </mxCell>
                <mxCell id="163" value="" style="strokeWidth=1;shadow=0;dashed=0;align=center;html=1;shape=mxgraph.mockup.containers.marginRect2;rectMarginTop=32;strokeColor=#666666;gradientColor=none;" vertex="1" parent="1">
                    <mxGeometry x="129" y="161" width="549" height="347" as="geometry"/>
                </mxCell>
                <mxCell id="164" value="File" style="strokeColor=inherit;fillColor=inherit;gradientColor=inherit;strokeWidth=1;shadow=0;dashed=0;align=center;html=1;shape=mxgraph.mockup.containers.rrect;rSize=0;fontSize=17;fontColor=#666666;gradientColor=none;" vertex="1" parent="163">
                    <mxGeometry width="72" height="32" relative="1" as="geometry">
                        <mxPoint as="offset"/>
                    </mxGeometry>
                </mxCell>
                <mxCell id="166" value="About" style="strokeColor=inherit;fillColor=inherit;gradientColor=inherit;strokeWidth=1;shadow=0;dashed=0;align=center;html=1;shape=mxgraph.mockup.containers.rrect;rSize=0;fontSize=17;fontColor=#666666;gradientColor=none;" vertex="1" parent="163">
                    <mxGeometry width="65" height="32" relative="1" as="geometry">
                        <mxPoint x="72" as="offset"/>
                    </mxGeometry>
                </mxCell>
            </root>
        </mxGraphModel>
    </diagram>
</mxfile>